:SAMPLES-PER-SECOND 30
:FULLY-SPECIFIED
:DEGREES
828
root  69.1227 39.6616 -0.919616 -105.769 -82.1004 100.803
RightUpLeg  -3.08053 -14.9913 -24.0051
RightLeg  8.55816 1.89245 -0.307126
RightFoot  3.99415 -1.452 10.9576
RightToes  -1.16417e-010 0 -3.6325e-017
Spine  10.1536 0.183092 3.8193
Spine1  7.12773 1.64622 -5.41577
HEad  -10.2645 2.3122 -1.20315
LeftShoulder1  10.2349 -15.3829 -47.2916
LeftArm  -7.62782 -29.3852 -22.8491
LeftForeArm  22.2963 -24.1309 -3.93683
LeftHand  -0.244104 0.0205437 5.32207
RightShoulder  6.20173 11.4386 35.5289
RightArm  -5.53469 31.6156 40.757
RightForeArm  -3.28074 35.2798 8.14101
RightHand  -4.36131 12.1778 -28.5876
LeftUpLeg  0.550941 4.02283 -5.67074
LeftLeg  5.91432 26.8192 -4.9594
LeftFoot  -3.32611 -0.112319 1.88633
LeftToes  -2.09216e-011 1.96776e-011 -5.83545e-012
829
root  69.097 39.6316 -0.888044 -106.278 -81.9694 100.98
RightUpLeg  -3.10597 -14.8296 -24.2708
RightLeg  9.30298 2.04488 -0.283742
RightFoot  3.63241 -1.39287 10.7588
RightToes  -1.16417e-010 0 -3.6325e-017
Spine  10.1819 0.0174921 3.51275
Spine1  7.56186 1.37439 -5.11684
HEad  -11.3993 2.60185 -1.07362
LeftShoulder1  9.77508 -15.1046 -45.8091
LeftArm  -10.7095 -32.9998 -24.548
LeftForeArm  29.1581 -30.1188 -4.94383
LeftHand  -0.244104 0.0205437 5.32207
RightShoulder  6.09561 11.3282 35.1307
RightArm  -7.31187 33.9612 40.7084
RightForeArm  -2.4018 42.2208 10.3391
RightHand  -4.27619 11.754 -28.6823
LeftUpLeg  0.813142 4.12972 -5.7665
LeftLeg  6.23872 26.8792 -4.91802
LeftFoot  -3.51157 -0.109342 1.90766
LeftToes  -2.09216e-011 1.96776e-011 -5.83545e-012
830
root  69.0644 39.6101 -0.8863 -107.949 -81.8936 102.471
RightUpLeg  -3.37849 -14.144 -24.2165
RightLeg  10.0744 1.84175 -0.396752
RightFoot  3.30115 -1.32767 10.4833
RightToes  -1.16417e-010 0 -3.6325e-017
Spine  10.7469 -0.0652272 3.35015
Spine1  6.71103 1.12583 -4.647
HEad  -11.6581 2.52595 -1.30168
LeftShoulder1  9.69568 -15.0861 -45.4678
LeftArm  -12.0419 -34.7062 -25.9014
LeftForeArm  33.1274 -36.8302 -6.39687
LeftHand  -0.244104 0.0205437 5.32207
RightShoulder  6.18669 11.5225 35.2032
RightArm  -9.49141 34.6999 39.0656
RightForeArm  -1.09701 49.5877 13.3139
RightHand  -3.69105 9.95747 -27.7212
LeftUpLeg  0.901217 4.38334 -5.63346
LeftLeg  6.66389 26.9388 -4.92609
LeftFoot  -3.66952 -0.0963749 1.76496
LeftToes  -2.09216e-011 1.96776e-011 -5.83545e-012
831
root  69.0304 39.6007 -0.898631 -109.083 -81.9822 103.474
RightUpLeg  -3.50994 -13.6211 -24.0276
RightLeg  10.6178 1.36015 -0.472007
RightFoot  3.09199 -1.31468 10.5235
RightToes  -1.16417e-010 0 -3.6325e-017
Spine  11.2474 -0.31332 3.60564
Spine1  5.72259 0.791164 -4.43681
HEad  -11.383 2.09701 -1.62267
LeftShoulder1  9.9439 -15.4147 -45.8338
LeftArm  -11.8225 -35.4877 -27.2492
LeftForeArm  31.3974 -42.1494 -8.04175
LeftHand  -0.244104 0.0205437 5.32207
RightShoulder  6.26854 11.9005 34.7323
RightArm  -12.5267 34.6928 37.2411
RightForeArm  0.432055 55.2971 16.3667
RightHand  -3.3379 8.62361 -27.4664
LeftUpLeg  0.857656 4.66353 -5.36196
LeftLeg  7.2578 26.8565 -4.80885
LeftFoot  -3.79738 -0.0866817 1.65177
LeftToes  -2.09216e-011 1.96776e-011 -5.83545e-012
832
root  69.0279 39.5996 -0.883191 -107.998 -82.2163 102.082
RightUpLeg  -3.23864 -14.0985 -24.0773
RightLeg  10.9384 1.02009 -0.360332
RightFoot  3.32361 -1.3989 11.0146
RightToes  -1.16417e-010 0 -3.6325e-017
Spine  11.4291 -1.00548 4.70276
Spine1  5.95059 0.306098 -5.1142
HEad  -11.7291 0.852402 -1.98169
LeftShoulder1  10.2424 -15.8629 -46.1268
LeftArm  -10.3735 -37.0715 -29.78
LeftForeArm  25.877 -44.3911 -9.15865
LeftHand  -0.244104 0.0205437 5.32207
RightShoulder  6.11312 12.0376 33.3796
RightArm  -16.8676 35.0574 36.2335
RightForeArm  0.811257 58.012 18.258
RightHand  -3.00376 7.41886 -27.0362
LeftUpLeg  0.8779 4.63742 -5.28396
LeftLeg  7.89991 26.7672 -4.36721
LeftFoot  -3.87984 -0.0874005 1.69998
LeftToes  -2.09216e-011 1.96776e-011 -5.83545e-012
833
root  69.1111 39.5804 -0.835306 -105.167 -82.4409 98.6054
RightUpLeg  -2.89065 -14.9762 -24.4339
RightLeg  11.6356 0.844615 -0.193271
RightFoot  4.02164 -1.56508 11.769
RightToes  -1.16417e-010 0 -3.6325e-017
Spine  12.2377 -1.98967 6.14653
Spine1  6.64511 -0.363333 -5.87664
HEad  -12.3527 -0.773413 -2.92237
LeftShoulder1  10.6229 -16.4311 -46.4825
LeftArm  -7.31623 -39.5504 -34.3348
LeftForeArm  20.7714 -42.8786 -9.00857
LeftHand  -0.244104 0.0205437 5.32207
RightShoulder  5.78491 11.7186 32.0523
RightArm  -22.1569 35.9329 35.0812
RightForeArm  -2.12803 57.3516 18.0515
RightHand  -2.21707 4.87674 -24.9213
LeftUpLeg  0.948538 4.50306 -5.37073
LeftLeg  8.88828 26.6543 -3.70269
LeftFoot  -4.11277 -0.0910975 1.83341
LeftToes  -2.09216e-011 1.96776e-011 -5.83545e-012
834
root  69.322 39.4916 -0.794173 -101.717 -82.5851 94.2694
RightUpLeg  -3.11358 -15.0241 -24.8002
RightLeg  13.4706 0.482843 -0.181076
RightFoot  4.54834 -1.71804 12.4919
RightToes  -1.16417e-010 0 -3.6325e-017
Spine  14.6498 -2.99859 6.72422
Spine1  6.27862 -1.43111 -5.04483
HEad  -12.3465 -2.13792 -4.36524
LeftShoulder1  11.3304 -17.3861 -47.3238
LeftArm  -2.36815 -41.7166 -40.4223
LeftForeArm  15.7327 -37.5025 -7.6621
LeftHand  -0.244104 0.0205437 5.32207
RightShoulder  5.48621 11.249 31.236
RightArm  -27.3815 37.1246 32.6905
RightForeArm  -9.06653 52.6981 15.605
RightHand  -1.36168 1.92118 -21.6295
LeftUpLeg  0.556359 6.60815 -5.20614
LeftLeg  11.2011 24.3881 -2.83654
LeftFoot  -4.83858 -0.091135 2.12318
LeftToes  -2.09216e-011 1.96776e-011 -5.83545e-012
